<svg width="16" height="16" viewBox="0 0 16 16" fill="none" xmlns="http://www.w3.org/2000/svg">
<style>
path { fill: black; }
rect { fill: white; }

@media (prefers-color-scheme: dark) {
  path { fill: white; }
  rect { fill: black; }
}
</style>
<g clip-path="url(#clip0_137_53)">
<path d="M9.58187 6.60582H12.179C12.7115 6.60582 13.1691 6.68553 13.5517 6.84496C13.9376 7.0044 14.2341 7.24036 14.4414 7.55284C14.6486 7.86533 14.7523 8.24956 14.7523 8.70554C14.7523 9.07861 14.6885 9.39907 14.5609 9.66692C14.4366 9.93158 14.2596 10.1532 14.03 10.3318C13.8036 10.5071 13.5374 10.6474 13.2313 10.7527L12.7769 10.9918H10.5193L10.5098 9.87259H12.1886C12.4405 9.87259 12.6493 9.82795 12.8152 9.73866C12.981 9.64938 13.1053 9.52502 13.1882 9.36559C13.2743 9.20616 13.3174 9.02122 13.3174 8.81077C13.3174 8.58756 13.2759 8.39465 13.193 8.23203C13.1101 8.06941 12.9842 7.94505 12.8152 7.85895C12.6462 7.77286 12.4341 7.72981 12.179 7.72981H11.0168V13.5698H9.58187V6.60582ZM13.4752 13.5698L11.8873 10.4657L13.4035 10.4561L15.0105 13.5029V13.5698H13.4752Z" fill="black"/>
<path d="M9.37755 4.27162V4.18967C9.37755 3.88009 9.42177 3.59522 9.51023 3.33507C9.59868 3.07231 9.72745 2.84468 9.89655 2.65216C10.0657 2.45965 10.2738 2.31006 10.5209 2.2034C10.7681 2.09413 11.0516 2.0395 11.3716 2.0395C11.6916 2.0395 11.9765 2.09413 12.2262 2.2034C12.476 2.31006 12.6854 2.45965 12.8545 2.65216C13.0262 2.84468 13.1563 3.07231 13.2447 3.33507C13.3332 3.59522 13.3774 3.88009 13.3774 4.18967V4.27162C13.3774 4.5786 13.3332 4.86347 13.2447 5.12623C13.1563 5.38638 13.0262 5.61401 12.8545 5.80913C12.6854 6.00164 12.4773 6.15123 12.2301 6.2579C11.983 6.36456 11.6994 6.41789 11.3794 6.41789C11.0594 6.41789 10.7746 6.36456 10.5248 6.2579C10.2777 6.15123 10.0683 6.00164 9.89655 5.80913C9.72745 5.61401 9.59868 5.38638 9.51023 5.12623C9.42177 4.86347 9.37755 4.5786 9.37755 4.27162ZM10.5014 4.18967V4.27162C10.5014 4.44853 10.517 4.61372 10.5482 4.76721C10.5795 4.92071 10.6289 5.05599 10.6965 5.17305C10.7668 5.28752 10.8578 5.37727 10.9697 5.44231C11.0816 5.50735 11.2181 5.53987 11.3794 5.53987C11.5355 5.53987 11.6695 5.50735 11.7814 5.44231C11.8932 5.37727 11.983 5.28752 12.0506 5.17305C12.1183 5.05599 12.1677 4.92071 12.1989 4.76721C12.2327 4.61372 12.2496 4.44853 12.2496 4.27162V4.18967C12.2496 4.01797 12.2327 3.85668 12.1989 3.70579C12.1677 3.5523 12.117 3.41702 12.0467 3.29995C11.9791 3.18028 11.8893 3.08662 11.7775 3.01898C11.6656 2.95134 11.5303 2.91752 11.3716 2.91752C11.2129 2.91752 11.0777 2.95134 10.9658 3.01898C10.8565 3.08662 10.7668 3.18028 10.6965 3.29995C10.6289 3.41702 10.5795 3.5523 10.5482 3.70579C10.517 3.85668 10.5014 4.01797 10.5014 4.18967Z" fill="black"/>
<path d="M6.00882 8.72377C6.00882 8.55608 5.98273 8.40703 5.93056 8.27661C5.88212 8.14619 5.79455 8.02694 5.66786 7.91888C5.54116 7.81082 5.3623 7.70648 5.13127 7.60587C4.90396 7.50153 4.61331 7.39533 4.25931 7.28727C3.87177 7.16803 3.51404 7.03574 3.18612 6.89041C2.86193 6.74136 2.57873 6.56995 2.33652 6.37618C2.09431 6.17869 1.90613 5.95324 1.77198 5.69985C1.63784 5.44274 1.57076 5.14649 1.57076 4.81113C1.57076 4.47948 1.6397 4.17765 1.77757 3.90563C1.91917 3.63361 2.11853 3.39885 2.37565 3.20135C2.63649 3.00013 2.94391 2.84549 3.29791 2.73743C3.65192 2.62564 4.04318 2.56974 4.47171 2.56974C5.07537 2.56974 5.59519 2.68153 6.03117 2.90511C6.47088 3.12869 6.80811 3.42866 7.04287 3.80502C7.28136 4.18138 7.4006 4.59686 7.4006 5.05147H6.00882C6.00882 4.78318 5.95106 4.54656 5.83554 4.34161C5.72375 4.13293 5.55234 3.96898 5.32131 3.84973C5.094 3.73049 4.80521 3.67087 4.45494 3.67087C4.1233 3.67087 3.84755 3.72118 3.62769 3.82179C3.40784 3.9224 3.24388 4.05841 3.13582 4.22982C3.02776 4.40123 2.97372 4.595 2.97372 4.81113C2.97372 4.9639 3.00912 5.10364 3.07992 5.23034C3.15072 5.35331 3.25879 5.46882 3.40411 5.57688C3.54944 5.68122 3.73203 5.77997 3.95188 5.87313C4.17174 5.96629 4.43072 6.05572 4.72882 6.14142C5.17971 6.27557 5.57284 6.42462 5.90821 6.58858C6.24357 6.74881 6.52305 6.9314 6.74663 7.13635C6.97021 7.3413 7.13789 7.5742 7.24968 7.83504C7.36147 8.09215 7.41737 8.38467 7.41737 8.71259C7.41737 9.05541 7.34843 9.36469 7.21056 9.64044C7.07268 9.91246 6.87519 10.1454 6.61807 10.3391C6.36468 10.5292 6.05912 10.6764 5.70139 10.7807C5.34739 10.8813 4.9524 10.9316 4.51642 10.9316C4.12516 10.9316 3.73948 10.8794 3.3594 10.7751C2.98304 10.6708 2.64022 10.5124 2.33093 10.3C2.02165 10.0839 1.77571 9.81558 1.59312 9.49512C1.41053 9.17093 1.31924 8.7927 1.31924 8.36045H2.7222C2.7222 8.62502 2.76691 8.85046 2.85635 9.03678C2.9495 9.22309 3.07806 9.37587 3.24202 9.49512C3.40598 9.61063 3.59602 9.69634 3.81215 9.75223C4.032 9.80813 4.26676 9.83607 4.51642 9.83607C4.84434 9.83607 5.11822 9.7895 5.33808 9.69634C5.56166 9.60318 5.72934 9.47276 5.84113 9.30507C5.95292 9.13739 6.00882 8.94362 6.00882 8.72377Z" fill="black"/>
</g>
<defs>
<clipPath id="clip0_137_53">
<rect width="16" height="16" fill="white"/>
</clipPath>
</defs>
</svg>
